# xmcd CD database file
#
# Track frame offsets:
#	150
#	23045
#	46386
#	65357
#	70988
#	92510
#	111477
#	130510
#	162661
#
# Disc length: 2498 seconds
#
# Revision: 0
# Processed by: cddbd v1.5.1PL0 Copyright (c) Steve Scherf et al.
# Submitted via: CDex 1.51
#
DISCID=7709c009
DTITLE=Ryan Montana - A Dance Called Life
DYEAR=2002
DGENRE=Jazz
TTITLE0=A Dance Called Life
TTITLE1=Use Me
TTITLE2=Soul Water
TTITLE3=633 Faith Ave
TTITLE4=Never A Tear
TTITLE5=Drive
TTITLE6=Can't Say Nothin'
TTITLE7=Crisco
TTITLE8=Then A Secret, Now Goodbye
EXTD=YEAR: 2002
EXTT0=
EXTT1=
EXTT2=
EXTT3=
EXTT4=
EXTT5=
EXTT6=
EXTT7=
EXTT8=
PLAYORDER=
